<?xml version="1.0" encoding="utf-8"?>
<!-- Generator: Adobe Illustrator 26.2.1, SVG Export Plug-In . SVG Version: 6.00 Build 0)  -->
<svg version="1.1" id="Layer_35" xmlns="http://www.w3.org/2000/svg" xmlns:xlink="http://www.w3.org/1999/xlink" x="0px" y="0px"
	 viewBox="0 0 612 362.5" style="enable-background:new 0 0 612 362.5;" xml:space="preserve">
<style type="text/css">
	.st0{fill:#302F4D;}
	.st1{fill:#B4DDBF;}
	.st2{fill:#F5D6D2;}
	.st3{fill:#EE9122;}
	.st4{fill:#F8D9D5;}
	.st5{fill:#3EB15D;}
	.st6{fill:#E4B9B8;}
	.st7{fill:#503547;}
	.st8{fill:#FFFFFF;}
	.st9{fill:#BCD0C3;}
	.st10{fill:#B43B31;}
	.st11{fill:#205FAD;}
	.st12{fill:#819F88;}
	.st13{fill:#EBF5EE;}
	.st14{fill:#3E3E64;}
	.st15{fill:#864135;}
	.st16{fill:#894236;}
	.st17{fill:#2B2525;}
	.st18{fill:#6C3431;}
	.st19{fill:#F2AF1C;}
	.st20{fill:#B6DEC3;}
	.st21{fill:#FEECEB;}
	.st22{fill:#FAD7DA;}
	.st23{fill:#146B37;}
	.st24{fill:#67C080;}
	.st25{fill:#31904D;}
	.st26{fill:#0E733B;}
	.st27{fill:#2F9952;}
	.st28{fill:#1E7F3F;}
	.st29{fill:#2A9952;}
	.st30{fill:#228B43;}
	.st31{fill:#0D592D;}
	.st32{fill:#12532A;}
	.st33{fill:#308145;}
</style>
<g>
	<g>
		<polygon class="st0" points="372.7,292.1 460.7,274.4 493.3,343.2 378.3,343.2 		"/>
	</g>
	<g>
		<path class="st1" d="M606,201c-6-14.5-37-8.4-59.9,4.6c-23,12.9-1,19.4-1,19.4s38.6-13.8,44.1-14C594.5,210.8,608.4,206.8,606,201
			z"/>
	</g>
	<g>
		<path class="st2" d="M467.7,192.6h7.4l33.7,32.9c0,0,7.8-20.5,0-36.1l10.9-24.1c0,0,19.6,11,30.8,46.7s17,48.4,8.4,60.7
			c-8.6,12.3-38.9,2.7-57.8-6c-18.9-8.8-55.6-42.5-55.6-42.5L467.7,192.6z"/>
	</g>
	<g>
		<path class="st3" d="M368.5,110.7c-3.8,8-2.6,13.8-2.6,13.8s-7.7,1.8-5.3,10.7c2.4,8.9,16.7,12.6,16.7,12.6l24.7,6
			c0,0,17.2-2.1,16.9-15.7c0-4.6-1.5-7.7-4-10.8c-2.5-3.1-0.2-8.5-6.5-12.9c-6.3-4.5-13.1-6.1-19.6-5.1c-6.4,0.9-9.8,1.5-13.3,0.7
			C371.8,109.1,369.5,108.5,368.5,110.7z"/>
	</g>
	<g>
		<path class="st4" d="M369.2,121.5c0,0,0.9-3.6,4.6-3.6s6.4,1.6,6.9,7.4c0.5,5.8,1.2,14.9,11.5,13.9c10.3-0.9,13-3.4,13-3.4
			s4.9,11-4.8,12.4l7.2,23.8l10.4-1.8l-11.7,20.6l-16,2.7l-19.9-16.9l12.4-2.7l-1.5-13.5c0,0-13.5-3.2-12.8-18.4
			C369,126.8,369.2,121.5,369.2,121.5z"/>
	</g>
	<g>
		<path class="st5" d="M335.7,191.3c0,0,7.4-10.2,18.5-12.3c11.1-2.1,19.4-3.2,19.4-3.2s8,13.1,21.4,9.7c13.4-3.4,16.8-7,19.6-14.8
			c0,0,16.5-3.6,25-2.7c8.5,0.9,35.5,24.7,35.5,24.7s-13.7,29.5-26.1,33.8l7.4,56l-71.3,14.1L335.7,191.3z"/>
	</g>
	<g>
		<path class="st6" d="M383.1,179.3c-0.3,0-0.5-0.2-0.5-0.5l-0.4-4.3c0-0.3,0.2-0.5,0.5-0.5c0.3,0,0.5,0.2,0.5,0.5l0.4,4.3
			C383.6,179,383.4,179.2,383.1,179.3C383.1,179.3,383.1,179.3,383.1,179.3z"/>
	</g>
	<g>
		<path class="st7" d="M377.6,136.9c-3.3-2.4-5.5-0.2-5.6-0.1l-0.7-0.7c0,0,2.9-2.9,6.9-0.1L377.6,136.9z"/>
	</g>
	<g>
		<path class="st6" d="M379.1,143.8l0.6-8.5c0-0.3,0.3-0.5,0.5-0.5c0.3,0,0.5,0.3,0.5,0.5l-0.5,7.3l1.9-0.2c0.3,0,0.5,0.2,0.6,0.4
			c0,0.3-0.2,0.5-0.4,0.6L379.1,143.8z"/>
	</g>
	<g>
		<path class="st8" d="M379.3,145.5h11.6c0,0-1.5,5.1-6.1,5.3C380.2,151.1,379.3,145.5,379.3,145.5z"/>
	</g>
	<g>
		<path class="st6" d="M385.2,161.3c-1.1,0-2.3-0.1-3.6-0.5c-0.3-0.1-0.4-0.3-0.4-0.6c0.1-0.3,0.3-0.4,0.6-0.4
			c9.7,2.4,13.8-6,14-6.3c0.1-0.2,0.4-0.4,0.7-0.2c0.2,0.1,0.4,0.4,0.2,0.7C396.7,154,393.1,161.3,385.2,161.3z"/>
	</g>
	<g>
		<path class="st8" d="M195.1,201c-0.2,0-0.3-0.1-0.4-0.2c-5.1-7.6-8.2-25.9-9.2-54.2c-0.7-21.1,0.1-40.1,0.1-40.3
			c0-0.3,0.3-0.5,0.5-0.5c0.3,0,0.5,0.2,0.5,0.5c0,0.8-3.1,76,8.9,93.9c0.2,0.2,0.1,0.5-0.1,0.7C195.3,200.9,195.2,201,195.1,201z"
			/>
	</g>
	<g>
		<path class="st9" d="M6,237.2c-3.9,17.1,36,37.5,36,37.5s-15.8,10.5-5.2,23.2s43.7,15.9,43.7,15.9s-15.2,12.1,2.3,13.5
			s87.7-14.7,87.7-14.7l-64.1-103.3c0,0-28.8,1.7-37.4,23.3C65,240.4,11.5,213,6,237.2z"/>
	</g>
	<g>
		<path class="st8" d="M181.5,337.7c-0.2,0-0.3-0.1-0.4-0.2c-18.2-30.2-115.8-73.6-116.8-74c-0.3-0.1-0.4-0.4-0.3-0.7
			c0.1-0.3,0.4-0.4,0.7-0.3c1,0.4,98.9,43.9,117.3,74.4c0.1,0.2,0.1,0.5-0.2,0.7C181.7,337.7,181.6,337.7,181.5,337.7z"/>
	</g>
	<g>
		<path class="st10" d="M321.6,305.5c0,0,8.8-0.5,8.8-4.8c0-4.3-8.8-2.8-8.8-2.8V305.5z"/>
	</g>
	<g>
		<polygon class="st11" points="323.9,296 335.6,343.2 199.8,343.2 218.3,297 		"/>
	</g>
	<g>
		<path class="st12" d="M70.4,343.2c0,0,7.8-12.7,17.7-8.1S167.1,298,193.8,302c26.8,4,37.6,9.2,37.6,9.2s40.4-0.9,52.2,10
			c11.8,11,13.8,22,13.8,22L70.4,343.2z"/>
	</g>
	<g>
		<path class="st13" d="M187.1,79.2c-22.9,2.1-14.7,38.2-14.7,38.2s-17.2-1.8-10.3,30.9s14.3,56.4,14.3,56.4L218,177
			c0,0,3-25.9-9-19.5c0,0,8-50.4-7-43.4C202.1,114.1,206.6,77.5,187.1,79.2z"/>
	</g>
	<g>
		<path class="st14" d="M343.3,102.6c2.3-1,2.9-4.8,1.2-8.5c-1-2.2-2.5-3.8-4.1-4.5c-0.1-0.6-0.2-1.2-0.4-1.7c0.3,0,0.6-0.1,0.9-0.3
			c2.3-1,2.9-4.8,1.2-8.5c-1.6-3.6-4.9-5.7-7.2-4.7c-0.1,0-0.1,0.1-0.2,0.1c-0.3-0.5-0.6-1-0.8-1.5c0.6-0.2,1.1-0.5,1.5-0.9
			c1.7-1.9,0.5-5.7-2.6-8.5c-2.8-2.5-6.3-3.3-8.2-2c-0.1-0.1-0.2-0.2-0.3-0.3c0.8-0.4,1.4-1,1.6-1.7c0.9-2.4-1.5-5.5-5.5-7
			c-3.1-1.2-6.2-1-7.8,0.3c-0.5-0.3-1-0.6-1.5-0.8c0.1-0.2,0.1-0.3,0.1-0.5c0.5-2.5-2.1-5.1-5.8-5.9c-2.7-0.5-5.3,0.1-6.7,1.4
			c-0.5-0.1-1-0.3-1.5-0.4c0-0.1,0-0.2,0-0.3c0-2.5-3.1-4.6-6.9-4.6c-2.9,0-5.3,1.2-6.3,2.8c-0.2,0-0.5,0-0.7,0
			c-0.7-2.1-3.4-3.6-6.7-3.6c-3.7,0-6.6,1.9-6.9,4.3c-0.4,0.1-0.8,0.1-1.2,0.2c-0.2-0.3-0.4-0.5-0.6-0.8c-2.4-2.7-6.9-2.7-10,0
			c-1.4,1.2-2.2,2.8-2.6,4.4c-0.7,0.3-1.4,0.6-2.1,0.9c-2.2-1.8-5.9-1.5-8.5,0.8c-1.7,1.5-2.6,3.5-2.6,5.4c-0.6,0.4-1.1,0.8-1.7,1.2
			c-0.6-0.6-1.2-1.1-2.1-1.4c-3-1-6.5,1.1-7.7,4.7c-0.7,2.1-0.6,4.2,0.2,5.8c-0.3,0.3-0.5,0.6-0.8,1c-0.1,0-0.2-0.1-0.2-0.1
			c-3-1-6.5,1.1-7.7,4.7c-0.9,2.6-0.4,5.3,1,7c-0.3,0.7-0.6,1.5-0.9,2.2c-2.7-0.4-5.6,1.7-6.8,4.9c-1.3,3.6,0.1,7.4,3.2,8.5
			c0.2,0.1,0.4,0.1,0.6,0.2c0,0.6-0.1,1.2-0.1,1.8c-1.8,0.7-3.4,2.3-4.1,4.6c-1.3,3.6,0.1,7.4,3.2,8.5c0.8,0.3,1.5,0.3,2.3,0.2
			c0.2,0.9,0.5,1.8,0.7,2.7c-0.9,0.3-1.7,0.9-2.3,1.8c-1.7,2.6-0.4,6.4,3,8.6c1.5,1,3.2,1.5,4.7,1.5c0.1,0.2,0.3,0.4,0.4,0.6
			c-0.7,0.4-1.3,0.9-1.7,1.5c-1.7,2.6-0.4,6.4,3,8.6c2.6,1.7,5.8,1.9,7.8,0.6c0.1,0.1,0.2,0.2,0.2,0.2c-0.3,0.2-0.6,0.5-0.8,0.8
			c-1.4,2.1,0.2,5.6,3.5,7.8c2,1.3,4.2,1.9,5.9,1.6c0.5,2,2.9,3.9,6,4.5c2.4,0.5,4.7,0.2,6.3-0.7c0.9,1.7,3,3.1,5.7,3.7
			c3.4,0.7,6.6-0.2,7.7-2.1c0.2,0,0.3,0,0.5,0.1c0.2,0.8,0.7,1.5,1.3,1.9c1.6,1,4,0.4,6-1.3c0.6,0,1.2,0,1.8,0
			c6.1,0,12-0.8,17.6-2.3c0.3,0.7,0.7,1.4,1.3,1.8c2.1,1.4,5.6-0.2,7.8-3.5c0.4-0.6,0.7-1.2,1-1.9c0.7-0.3,1.3-0.6,2-0.9
			c0.3,0.7,0.7,1.2,1.2,1.6c2.1,1.4,5.6-0.2,7.8-3.5c0.5-0.8,1-1.7,1.2-2.6c0.1,0.1,0.1,0.1,0.2,0.2c2.1,1.4,5.6-0.2,7.8-3.5
			c1.7-2.6,2.1-5.6,1.1-7.4c0.3-0.3,0.5-0.6,0.7-0.9c0.4,0.4,1,0.7,1.5,0.8c2.5,0.5,5.2-2.2,6.1-6.1c0.5-2.4,0.2-4.7-0.7-6.2
			c0.1-0.2,0.2-0.3,0.2-0.5c0.1,0,0.2,0.1,0.3,0.1c2.5,0.5,5.2-2.2,6.1-6.1c0.8-3.7-0.4-7.2-2.7-8c0-0.4,0.1-0.8,0.1-1.1
			C341.9,102.9,342.7,102.9,343.3,102.6z"/>
	</g>
	<g>
		<path class="st15" d="M114,116.2c0,0,19.1-4.6,25.2,1.5c6.1,6,18.2,19.1,19.5,22.8s3,16.8,0,23.2s-12.2,53.5-12.2,53.5
			s56.4-37.3,62.6-39.3c6.2-2,38.8-6.6,47.8-5.8c9,0.8-25.4,111.4-25.4,111.4L214.8,261l-0.9-16.9l-53.8,24.6
			c0,0-49.3,20.8-61.1-7.8s4.9-90.7,4.9-90.7L114,116.2z"/>
	</g>
	<g>
		<path class="st16" d="M317.6,174.2c0,0,28.5,10,38,25.5c9.5,15.5,16.6,38.5,23.2,61.3s22.3,82.2,22.3,82.2h-54.9
			c0,0-11.2-45.3-16.3-56.3C324.8,276,317.6,174.2,317.6,174.2z"/>
	</g>
	<g>
		<path class="st16" d="M271.5,114.6v-2.7c0-10.1,8-18.5,18.1-18.8h0c10.2-0.4,18.7,7.8,18.7,18.1v2.2c0,0,2,16,2,19
			s-2.4,13.8-9.8,16.7c0,0-2.6,18.6,3.7,22.9l-10.4,13h-9.1l-20.4-14.3c0,0,10.9-0.4,9.5-24.8c-0.2-11.5-1.1-16.1-1.1-16.1
			s-12.5,0-11.8-9.5S271.5,114.6,271.5,114.6z"/>
	</g>
	<g>
		<path class="st17" d="M284.6,112.7c-0.1,0-0.2,0-0.3-0.1c-0.2-0.2-0.3-0.5-0.1-0.7c0.1-0.1,1.5-2.2,4-2.6c1.8-0.2,3.6,0.4,5.4,2
			c0.2,0.2,0.2,0.5,0.1,0.7c-0.2,0.2-0.5,0.2-0.7,0.1c-1.6-1.4-3.1-1.9-4.6-1.8c-2.1,0.3-3.3,2.1-3.4,2.1
			C284.9,112.6,284.8,112.7,284.6,112.7z"/>
	</g>
	<g>
		<path class="st18" d="M296.7,119.6c-0.3,0-0.5-0.2-0.5-0.5c0-0.3,0.2-0.5,0.5-0.5l5.2-0.4l-2.9-8.8c-0.1-0.3,0.1-0.5,0.3-0.6
			c0.3-0.1,0.5,0.1,0.6,0.3l3.3,10L296.7,119.6C296.7,119.6,296.7,119.6,296.7,119.6z"/>
	</g>
	<g>
		<path class="st8" d="M293.3,132.3c-5.1,0.1-6-3.9-6.2-6.7l12.5-0.2C299.6,125.3,299.8,132.1,293.3,132.3z"/>
	</g>
	<g>
		<circle class="st8" cx="269.6" cy="129.4" r="3.4"/>
	</g>
	<g>
		<path class="st18" d="M292.7,151.7c-3,0-7.1-0.8-11.7-3.6c-0.2-0.1-0.3-0.5-0.2-0.7c0.1-0.2,0.5-0.3,0.7-0.2
			c11.2,6.8,18.6,1.5,18.7,1.4c0.2-0.2,0.5-0.1,0.7,0.1c0.2,0.2,0.1,0.5-0.1,0.7c-0.1,0.1-2,1.5-5.5,2
			C294.6,151.6,293.7,151.7,292.7,151.7z"/>
	</g>
	<g>
		<path class="st19" d="M265.7,170.7c0,0,10.4,10.3,23.5,8.3c13.2-2,14.6-7.7,14.6-7.7l15.2,2.9c0,0,19.3,84,11.4,126.5
			c0,0-27.2-2.5-44.9,2.3c-17.7,4.8-68,7.9-81.5-1.7c0,0,7.1-48.1,9.8-57.2l1.3-0.6c0,0-0.9,15.8,6.6,14.5
			c7.5-1.3,13.8-11.2,18.6-23.5c4.8-12.3,14.4-48.7,14.4-62.9L265.7,170.7z"/>
	</g>
	<g>
		<path class="st20" d="M527.2,119.9l-1-0.2c4.2-26.3,33.7-69.5,34-70l0.8,0.6C560.7,50.8,531.3,93.8,527.2,119.9z"/>
	</g>
	<g>
		<path class="st21" d="M556.6,47.5l-0.2,0.2c-0.7,1-0.4,2.4,0.5,3.1l5.5,4c1,0.7,2.4,0.5,3.2-0.5l0.4-0.6c0.6-0.8,1.5-1.3,2.5-1.3
			c4.4-0.1,16.7-1.1,20.1-10.7c0.5-3.1-3.8-5.7-7.8-2.5c0,0,7.4-7.1,5.3-11.3c-2.2-4.2-11.4,4.8-11.4,4.8s6.3-8.5,3.1-10.7
			s-10.3,6.2-10.3,6.2s1-7.7-3.7-6.9c-4.5,0.7-11.2,12.7-7,23.1C557.3,45.5,557.2,46.6,556.6,47.5z"/>
	</g>
	<g>
		
			<rect x="573.8" y="32.6" transform="matrix(0.7916 -0.611 0.611 0.7916 100.3193 360.3145)" class="st22" width="9.2" height="1"/>
	</g>
	<g>
		
			<rect x="568.7" y="28.9" transform="matrix(0.3673 -0.9301 0.9301 0.3673 334.5643 550.7111)" class="st22" width="6.8" height="1"/>
	</g>
	<g>
		<circle class="st22" cx="573.3" cy="26.3" r="1.5"/>
	</g>
	<g>
		<circle class="st22" cx="582.5" cy="30.3" r="1.5"/>
	</g>
	<g>
		<path class="st22" d="M580.4,46.8l-0.9-0.5c0,0,1.4-2.3,0.9-3.8c-0.2-0.5-0.5-0.9-1-1.1c-2.6-1.2-5.2,2.6-5.3,2.7l-0.9-0.5
			c0,0,2.4-4.8,1.4-7.8c-0.3-0.9-0.9-1.5-1.7-1.8c-4.3-1.9-8,3.7-8.1,3.7l-1.6,2.4l0.7-2.8c1.1-4.3,0.4-5.8-0.3-6.2
			c-1.3-0.9-4.2,0.7-5.1,1.4l-0.6-0.8c0.4-0.3,4.2-2.9,6.3-1.4c1.2,0.8,1.5,2.5,1.1,5.3c1.6-1.7,4.6-4,8-2.5
			c1.1,0.5,1.8,1.3,2.2,2.4c0.7,1.9,0.2,4.3-0.4,6c1.2-1,2.9-1.8,4.6-1c0.8,0.4,1.3,0.9,1.6,1.7C582,44.1,580.5,46.7,580.4,46.8z"/>
	</g>
	<g>
		<path class="st1" d="M521.5,149.6c0,0,5.3-50.3,41.2-78.6s30.5,8.7,18,24S521.5,149.6,521.5,149.6z"/>
	</g>
	<g>
		<path class="st1" d="M503.7,186.4c0,0-3.3-85,11.1-103.5C529.3,64.4,536,78,536,81.5s-17,62.8-16.3,77.5
			C520.4,173.7,503.7,186.4,503.7,186.4z"/>
	</g>
	<g>
		<path class="st23" d="M130,260.3c0,0,20.8,4.7,28.5,18.2l23.1-0.6C181.5,277.9,173.6,249.7,130,260.3z"/>
	</g>
	<g>
		<path class="st24" d="M58,115.4c-16.9,19.7,4.6,35.7,27.1,49.4s79.2,42.4,93.9,98s19.3,80.4,19.3,80.4h44.8
			c0.1,0.2-59.3-144.3-93.1-194.3C119.9,104.4,73.3,97.6,58,115.4z"/>
	</g>
	<g>
		<path class="st25" d="M46.1,290.6c-7.8-15.7,16.1-59.4,62-62.3c46-2.9,68.2,41,68.2,41s-35.7-19.3-67.9,2.6
			C76.3,293.8,54.3,307,46.1,290.6z"/>
	</g>
	<g>
		<path class="st15" d="M111,137.2c-0.5,8,4.5,9.2,9.9,9.4c5.4,0.2,31.8,2.8,31.8,2.8l-9.9-17.5l-23.6-0.4
			C119.2,131.6,111.4,131.4,111,137.2z"/>
	</g>
	<g>
		<path class="st18" d="M215.2,243.9c-0.2,0-0.4-0.1-0.5-0.3c-0.1-0.2,0-0.5,0.2-0.7l15.5-7.3c0.2-0.1,0.5,0,0.7,0.2
			c0.1,0.2,0,0.5-0.2,0.7l-15.5,7.3C215.4,243.9,215.3,243.9,215.2,243.9z"/>
	</g>
	<g>
		<path class="st18" d="M144.3,132.7C144.3,132.7,144.3,132.7,144.3,132.7l-15.9-0.5c-0.3,0-0.8-0.1-0.8-0.3c0-0.3,0.4-0.2,0.7-0.2
			l16,0c0.3,0,0.5,0.2,0.5,0.5C144.8,132.4,144.6,132.7,144.3,132.7z"/>
	</g>
	<g>
		<path class="st26" d="M74.8,262l-0.6-0.8c0.4-0.3,42.7-34.3,76.1-21.6l-0.4,0.9C117.1,228,75.3,261.6,74.8,262z"/>
	</g>
	<g>
		<path class="st27" d="M198.2,267c-18.5-60.3-72.5-109.9-73-110.4l0.7-0.7c0.5,0.5,54.8,50.3,73.3,110.9L198.2,267z"/>
	</g>
	<g>
		<path class="st28" d="M150.2,263.7c-10,8-6.7,27.2,6.8,43.1c13.4,15.8,24.8,36.4,24.8,36.4s-31.5-29.8-37.1-32.4
			c-5.6-2.6-16.6-6.4-22.2,4.8c-5.5,11.2,13.6,27.3,13.6,27.3s111.7,0,111.7,0c-1-2.1-2-3.2-3.1-5.3c-2.6-5.3-5.3-10.5-8.1-15.7
			c-3.7-6.9-7.5-13.8-11.6-20.5c-4.2-7.1-8.6-14.1-13.4-20.8c-4.1-5.8-8.5-11.5-13.7-16.4c-3.6-3.5-9.3-8.7-14.9-7.3
			c-4.5,1.2-6.8,6.7-6.7,10.9c0.1,10.3,1,13.1,1,13.1S166.1,251,150.2,263.7z"/>
	</g>
	<g>
		<path class="st24" d="M480.1,253.4c0,0,26.4-104.1,60.8-137.8s52.3-19.8,53-15.4c0.7,4.4,4.9,17.3-9.8,32
			c-14.7,14.7-35.4,38.4-48.9,56.7s-37.4,64.5-37.4,64.5H480.1z"/>
	</g>
	<g>
		<path class="st29" d="M488.4,253.9C488.3,253.9,488.3,253.9,488.4,253.9c-0.3,0-0.5-0.3-0.5-0.6c7.3-51.5,58.7-121,59.2-121.7
			c0.2-0.2,0.5-0.3,0.7-0.1c0.2,0.2,0.3,0.5,0.1,0.7c-0.5,0.7-51.8,70-59,121.2C488.8,253.7,488.6,253.9,488.4,253.9z"/>
	</g>
	<g>
		<path class="st30" d="M458.8,232.3c-15.1,3.1-17.8,18.1-22.4,50c-4.5,31.9-6.9,60.9-6.9,60.9h120.1c0,0-1.7-23.5-30-27.6
			c0,0,60.7-3.8,63.3-30.9s-40-15-40-15s55.9-32.8,40.1-59.7c-15.8-26.9-63.9,23.5-63.9,23.5s0.2-34.3-21.9-30.4
			C475.2,206.9,474,249,474,249S471.4,229.7,458.8,232.3z"/>
	</g>
	<g>
		<path class="st31" d="M429.5,343.7c-0.1,0-0.3-0.1-0.4-0.2c-0.2-0.2-0.2-0.5,0.1-0.7l100.4-86.4c0.2-0.2,0.5-0.2,0.7,0.1
			c0.2,0.2,0.2,0.5-0.1,0.7l-100.4,86.4C429.8,343.6,429.7,343.7,429.5,343.7z"/>
	</g>
	<g>
		<path class="st31" d="M527.6,292.6C527.6,292.6,527.6,292.6,527.6,292.6l-34.8-3.8l0.8-32c0-0.3,0.2-0.5,0.5-0.5
			c0.3,0,0.5,0.2,0.5,0.5l-0.8,31.1l33.9,3.7c0.3,0,0.5,0.3,0.4,0.6C528.1,292.4,527.9,292.6,527.6,292.6z"/>
	</g>
	<g>
		<path class="st31" d="M488.4,325.6c0,0-0.1,0-0.1,0l-31-6.8v-32.2c0-0.3,0.2-0.5,0.5-0.5s0.5,0.2,0.5,0.5v31.4l30.2,6.7
			c0.3,0.1,0.4,0.3,0.4,0.6C488.8,325.4,488.6,325.6,488.4,325.6z"/>
	</g>
	<g>
		<path class="st32" d="M291.4,317.6c0,0,21.8-12.4,31.9-11.5c10.1,0.9,0.2,21.4-5.3,29.8c0,0,40.9-38.5,69.6-42.2
			s-6.6,32.9-6.6,32.9s42.7-25.7,71.8-20.4c29.1,5.3,1.1,36.9,1.1,36.9H290.5L291.4,317.6z"/>
	</g>
	<g>
		<path class="st33" d="M273.1,299.5c-14.9,2.6-10.4,38.7-10.4,38.7s-8-23.3-18.6-21.5c-10.6,1.8-14.2,14.4-12.3,26.4l77.6,0
			C309.5,343.2,295.3,295.7,273.1,299.5z"/>
	</g>
	<g>
		<path class="st4" d="M516.3,149.3c0,0-10.8-4.6-11.4,4.8c0,0-5-0.9-4.2,6.1c0,0-6.3-0.4-4.2,8.6c0,0-6.1-0.9-3.6,8.1
			c2.5,9,7.8,15.9,12,16.2c4.2,0.3,2.9-5.2,2.9-5.2s4.6,1.8,5.7-1c1.1-2.9,0.6-4.4,0.6-4.4s4.7,0.2,4.2-4.5
			c-0.5-4.7-0.5-4.7-0.5-4.7s4.9,2.7,4.9-3.1s-8.2-17.5-8.2-17.5L516.3,149.3z"/>
	</g>
	<g>
		<path class="st6" d="M507.8,188.8c-0.1,0-0.2,0-0.3-0.1c-3.7-3.5-11.1-18.5-11.4-19.1c-0.1-0.2,0-0.5,0.2-0.7
			c0.2-0.1,0.5,0,0.7,0.2c0.1,0.2,7.5,15.4,11.2,18.8c0.2,0.2,0.2,0.5,0,0.7C508.1,188.7,508,188.8,507.8,188.8z"/>
	</g>
	<g>
		<path class="st6" d="M514.1,182.5c-0.1,0-0.2,0-0.3-0.1c-6.3-4.4-13.8-21.4-14.1-22.1c-0.1-0.3,0-0.5,0.3-0.7
			c0.3-0.1,0.5,0,0.7,0.3c0.1,0.2,7.7,17.4,13.7,21.7c0.2,0.2,0.3,0.5,0.1,0.7C514.5,182.4,514.3,182.5,514.1,182.5z"/>
	</g>
	<g>
		<path class="st6" d="M517.7,174.2c-0.1,0-0.2,0-0.2-0.1c-7.4-4.2-12.8-19.4-13.1-20c-0.1-0.3,0-0.5,0.3-0.6c0.3-0.1,0.5,0,0.6,0.3
			c0.1,0.2,5.5,15.5,12.6,19.5c0.2,0.1,0.3,0.4,0.2,0.7C518.1,174.1,517.9,174.2,517.7,174.2z"/>
	</g>
</g>
</svg>
