<svg xmlns="http://www.w3.org/2000/svg" width="321" height="270" fill="none"><path fill="#F2F2F2" d="M160.276 198.217a35.21 35.21 0 0 1 4.336 1.192c9.172 3.184 20.38 3.621 30.141 4.839 10.819 1.325 21.729 2.357 32.673 2.218 22.694-.291 46.61-6.309 61.209-21.298 11.928-12.242 16.072-28.655 18.96-44.452 3.667-20.06 5.445-42.213-7.633-59.096-9.047-11.712-24.247-19.114-40.002-22.742a115.53 115.53 0 0 0-47.582-.788c-21.808 4.237-41.634 14.738-63.739 17.611-16.053 2.086-32.462 0-48.626 1.245-16.938 1.278-34.53 6.726-46.062 17.915-6.516 6.33-7.877 15.115-8.743 23.371a86.112 86.112 0 0 0 1.639 27.145c1.487 6.932 3.747 13.811 7.765 19.948 9.913 15.168 29.52 23.961 49.221 27.807 10.573 2.053 21.378 2.9 32.17 3.496 7.891.424 16.521-.046 24.273 1.589Z"/><path fill="#E90029" d="M79.44 103.839c-10.977-.549-51.018.457-59.635-.04-.225 3.364.41 32.952-.179 46.133 18.749-.066 40.048.788 58.777 0 .218-14.936 1.037-31.011 1.037-46.093Z" style="mix-blend-mode:multiply"/><path fill="#FFFEFF" d="M34.137 121.395c2.415 0 4.065 1.035 4.425 2.925l-3.015.615c-.225-.96-.93-1.185-1.41-1.185-.54 0-.93.255-.93.69 0 .24.09.465.495.555l1.995.51c1.905.48 2.94 1.365 2.94 3 0 2.445-2.355 3.39-4.365 3.39-2.52 0-4.395-1.245-4.68-3.135l3.15-.585c.225.885.78 1.26 1.575 1.26.57 0 1.035-.225 1.035-.69 0-.24-.12-.45-.57-.57l-2.07-.51c-1.8-.435-2.79-1.335-2.79-2.94 0-2.19 1.86-3.33 4.215-3.33Zm10.612 0c3.045 0 5.445 2.31 5.445 5.25s-2.4 5.25-5.445 5.25c-3.06 0-5.445-2.31-5.445-5.25s2.386-5.25 5.445-5.25Zm0 7.725c1.365 0 2.325-1.065 2.325-2.475 0-1.41-.96-2.475-2.325-2.475-1.364 0-2.34 1.065-2.34 2.475 0 1.41.976 2.475 2.34 2.475Zm14.18-.09v2.64h-7.71v-10.05h3.104v7.41h4.605Zm.976-7.41h4.38c3.285 0 5.475 2.055 5.475 5.025s-2.19 5.025-5.475 5.025h-4.38v-10.05Zm3.105 7.47h1.02c1.56 0 2.595-1.005 2.595-2.445S65.59 124.2 64.03 124.2h-1.02v4.89Z"/><path fill="#2B2B2B" d="M161.525 96.132c-.086.663-.918 1.57-1.209 2.04l-1.612 2.575-3.212 5.144-1.414 2.265a62.059 62.059 0 0 0-14.341-9.27 39.77 39.77 0 0 0-.231 1.252c-1.448 8.302-1.19 16.75-.575 25.212.211 2.833.456 5.667.661 8.507-12.96.662-28.285 1.106-41.251.477.747-9.527 2.207-18.723 1.361-28.257-.238-2.649.278-6.018-.33-8.567-.608-2.55-2.921-4.536-4.884-6.178a175.16 175.16 0 0 1-7.692-6.812c-2.538-2.377-5.618-4.827-7.666-7.654a58.787 58.787 0 0 1-4.977-9.196c-1.361-3.403-1.943-6.382-2.94-9.93-.622-2.199.079-3.192-.503-5.417 0 0-.786.371-.793.358a104.512 104.512 0 0 0 3.774-1.84c.859-.431 1.711-.663 2.59-1.047a11.05 11.05 0 0 0 4.428-3.31l5.24 10.388a14.327 14.327 0 0 0 1.983 3.224 13.753 13.753 0 0 0 3.47 2.51 198.32 198.32 0 0 0 22.806 11.122l-.76 4.396c-.124.399-.091.83.093 1.205.243.29.584.481.958.536a18.29 18.29 0 0 0 11.102-.589c-.588-.662-.218-1.78.516-2.264a4.545 4.545 0 0 1 2.544-.503c5.201.033 10.574.437 15.2 2.82 3.7 1.907 6.674 4.946 9.556 7.945l4.097 4.29c.694.735 1.388 1.463 2.075 2.198.337.351.661.709.998 1.06.337.35.852.695.938 1.072a.794.794 0 0 1 0 .238Z"/><path fill="#fff" d="M134.794 248.117c-1.19.543-2.287 1.278-3.45 1.867a7.417 7.417 0 0 1-3.754.954c-.356 0-.703-.119-.984-.338-.377-.344-.152-.583-.119-.96.053-.609 0-1.238 0-1.854l-.06-3.886c-.039-2.587-.086-5.175-.139-7.766-.096-5.178-.22-10.355-.37-15.532-.29-10.36-.663-20.712-1.116-31.058a1832.09 1832.09 0 0 0-1.626-31.038c-.326-5.376-.674-10.752-1.044-16.128-.337 1.41-.661 2.82-1.005 4.231-4.857 20.524-9.582 41.048-12.179 61.969-.628 5.052-1.031 10.123-1.441 15.195-.212 2.562-.423 5.118-.661 7.68-.238 2.45-.291 5.111-.879 7.501-.866 3.509-.661 8.508-1.619 11.997a.979.979 0 0 1-.126.311c-.185.258-.561.258-.879.232-1.698-.133-4.77-1.794-6.47-1.927-1.321-.099-2.643-.205-3.965-.437a1.98 1.98 0 0 1-.964-.357c-.549-.47-.417-1.172-.417-1.801 0-.801-.06-1.602-.04-2.41.04-1.642.225-3.277.291-4.913v-1.019c.04-2.331-.072-4.694-.046-7.025.062-5.597.22-11.191.476-16.783a492.738 492.738 0 0 1 2.69-33.475c.106-.887.205-1.774.31-2.648.1-.774.192-1.549.291-2.33 1.745-13.95 3.998-27.92 5.115-41.903l.04-.49c12.967.634 25.959.612 38.924-.066.179 2.132.351 4.271.496 6.402 1.044 15.585.562 31.177-.469 46.762-1.064 16.108-2.723 32.223-3.906 48.331-.159 2.159-.311 4.31-.449 6.469a49.756 49.756 0 0 1-.456 6.243Zm-55.4-200.402a84.264 84.264 0 0 1-8.697 4.589 40.168 40.168 0 0 0-.225-.848c-2.425-9.269-5.379-18.412-8.59-27.47a20.853 20.853 0 0 0-1.144-2.753 32.84 32.84 0 0 0-3.172-4.31c-1.196-1.563-.661-3.867 1.645-3.463a5 5 0 0 1 2.313 1.271 13.128 13.128 0 0 0 2.102 1.642l1.176-2.953c.72.192.886 1.12.912 1.86.06 1.523-.04 3.106.43 4.53.469 1.423 1.11 3.018 1.705 4.501a192.404 192.404 0 0 0 11.03 22.51c.165.279.337.59.515.894Z"/><path stroke="#000" stroke-linecap="round" stroke-linejoin="round" stroke-width="1.814" d="M65.609 35.037c1.414 5.528 2.736 11.255 4.103 16.83l.199.794v.04c1.044 4.19 2.114 8.262 3.304 12.036 1.064 3.43 2.227 6.892 4.289 9.832a22.493 22.493 0 0 0 2.18 2.648v0c1.019 1.08 2.115 2.099 3.206 3.105l16.35 15.135v-.344l.713.98-.66-.662c.092 1.125.178 2.297.25 3.489.268 4.026.312 8.064.133 12.096l-1.25 23.291 2.287.08c12.821.441 25.642.36 38.462-.245a425.29 425.29 0 0 1-.185-8.819v0c-.079-8.386.112-16.79.575-25.211.053-.994.112-1.987.172-2.973M65.609 35.023c-1.11-4.323-2.274-8.514-3.576-12.38"/><path stroke="#000" stroke-linecap="round" stroke-linejoin="round" stroke-width="1.814" d="m110.686 72.338-20.011-9.845a8.833 8.833 0 0 1-2.498-1.61 8.947 8.947 0 0 1-1.5-2.39c-5.875-12.075-15.1-26.29-20.976-38.36m61.513 56.31a21.281 21.281 0 0 1 5.538.198c3.099.39 6.251.795 9.133 1.986a21.373 21.373 0 0 1 5.809 3.609c5.835 5.137 11.333 8.898 13.937 12.48m-99.77-72.53c-1.268-1.516-2.537-3.039-3.965-4.423a24.56 24.56 0 0 0-1.5-1.383 1.238 1.238 0 0 1-.469-.623c-.073-.397.278-.748.66-.966a5.332 5.332 0 0 1 3.027-.709c.488.015.969.116 1.421.298.377.18.732.402 1.058.662l.912.695c.253.238.535.443.839.61.35-.848.502-1.762.886-2.61a.662.662 0 0 1 .35-.416c.277-.086.535.185.66.443.523 1.027.41 2.251.291 3.397l-.198 1.8m.033.034-.099.927"/><path fill="#fff" d="M137.695 251.772c2.458 2.251 5.531 3.78 7.805 6.217-.903.12-1.816.145-2.723.073-2.492-.08-4.983.125-7.474 0-3.106-.126-5.862.463-8.915-.133.099-1.9-.113-4.985 0-6.879 0-.119 3.073-.927 3.377-1.033 1.183-.41 2.326-.9 3.482-1.383 1.011-.431 1.395-.351 2.089.509a23.25 23.25 0 0 0 2.359 2.629Z"/><path stroke="#000" stroke-linecap="round" stroke-linejoin="round" stroke-width="1.814" d="M98.658 134.672c-1.322 10.891-1.943 21.848-2.597 32.792l-4.897 82.037c-5.816 2.827-10.64 7.091-16.456 9.931 9.781.093 18.954.324 28.265 0 0-4.39.218-11.024 1.322-15.267 2.287-8.746 2.848-17.837 3.674-26.841a454.092 454.092 0 0 1 13.271-74.979c-1.25 38.287 6.8 77.661 5.154 115.928 7.858-.059 12.801.067 19.694.153a46.963 46.963 0 0 1-10.224-8.66 5.096 5.096 0 0 1-.958-1.377 5.532 5.532 0 0 1-.178-2.649c3.595-37.122 7.5-74.449 4.692-111.638"/><path stroke="#000" stroke-linecap="round" stroke-linejoin="round" stroke-width="1.814" d="M134.688 247.985c-2.115 1.324-5.512 2.158-7.891 2.966m-35.64-2.589c.714.331 9.252 2.748 11.585 3.145m37.319-154.401c5.544 3.615 8.274 5.713 13.818 9.328M69.858 52.727a157.082 157.082 0 0 0 10.395-5.17"/><path fill="#fff" d="M125.185 71.172c.172.663.251 3.702.423 4.37.172.669.806 2.119.317 2.741a1.272 1.272 0 0 1-.363.285 13.138 13.138 0 0 1-11.896.662 1.78 1.78 0 0 1-.615-.404 1.89 1.89 0 0 1-.158-1.57c.305-1.343.454-2.719.443-4.097 0-.457.779-1.808.661-2.232-.212-.662-.463-1.754-.595-2.403-.516-2.555-1.368-3.661-.694-6.177 1.15-4.31 7.038-8.289 11.426-5.919a6.536 6.536 0 0 1 2.346 2.543c1.322 2.218 3.007 5.753 2.71 8.428a4.8 4.8 0 0 1-1.197 2.463c-.237.245-2.716 1.642-2.808 1.31Z"/><path stroke="#000" stroke-linecap="round" stroke-linejoin="round" stroke-width="1.814" d="M113.983 70.94c-.575 3.252-.661 4.53-1.05 7.8-.04.16-.04.329 0 .49.125.252.35.44.621.516 3.8 1.622 8.181.583 12.087-.761.343-.12.733-.278.852-.622a1.238 1.238 0 0 0 0-.623c-.528-2.866-.601-3.74-1.321-6.567"/><path fill="#000" stroke="#000" stroke-linecap="round" stroke-linejoin="round" stroke-width="1.814" d="M113.937 62.122a2.028 2.028 0 0 1 1.427-.662c1.051 0 1.871.986 2.142 1.986l.317-4.581c1.982.384 6.82-.219 7.124-2.9a2.883 2.883 0 0 0-.661-1.887c-1.553-2.258-4.13-3.933-6.866-3.86-3.305.086-5.994 2.383-7.871 4.939-.43.56-.775 1.18-1.024 1.84a6.738 6.738 0 0 0-.232 2.84 12.626 12.626 0 0 0 3.529 7.45c.714.727 1.421 1.125 1.765 2.131a14.405 14.405 0 0 1-.496-5.217 4.07 4.07 0 0 1 .846-2.079Z"/><path stroke="#000" stroke-linecap="round" stroke-linejoin="round" stroke-width="1.814" d="M121.543 71.894c2.644-.112 5.572-.834 6.992-3.072 1.547-2.436.714-5.66-.555-8.25-1.579-3.224-4.038-6.355-7.52-7.222a6.458 6.458 0 0 0-2.954-.073c-2.472.556-4.283 2.867-4.897 5.296-.615 2.43-.238 5.078.35 7.555a46.287 46.287 0 0 0 1.632 5.343"/><path fill="#FFFEFF" d="M173.943 191.768a82.056 82.056 0 0 0-1.388 14.401c-.337 10.632-.079 19.272.509 29.899a1.99 1.99 0 0 1-.773 2.085l-2.313 2.099c-.767-1.516-2.961-1.602-4.137-2.834a5.57 5.57 0 0 1-1.177-2.807c-3.747-17.446-6.8-33.19-6.258-51.026 0-.086 10.481-.529 11.44-.582 1.321-.067 3.053-.451 4.229.377a3.137 3.137 0 0 1 1.124 2.781c-.06 1.867-.879 3.774-1.256 5.607Z"/><path fill="#000" d="M173.236 258.114c-1.104.365-2.465-.119-3.622 0a.487.487 0 0 1-.363-.059.502.502 0 0 1-.113-.404 16.509 16.509 0 0 0-.581-4.476 191.196 191.196 0 0 1-3.225 3.748c-.221.277-.482.52-.773.721-.29.172-.604.299-.932.378a21.468 21.468 0 0 1-11.955-.086c4.58-3.191 9.913-5.356 13.99-9.163.68-.493.992-1.35.787-2.165-.344-3.714-.8-7.429-1.362-11.116l5.604 4.449a19.864 19.864 0 0 1 2.327-2.649c.304.219.218 1.404.251 1.795.053.662.092 1.324.132 1.986.073 1.324.126 2.648.145 3.972a98.808 98.808 0 0 1-.165 7.846c-.099 1.496.013 3.727-.145 5.223Z"/><path stroke="#000" stroke-linecap="round" stroke-linejoin="round" stroke-width="1.814" d="M158.175 185.035c.264 21.259 5.003 40.168 8.201 61.189a3.09 3.09 0 0 1 0 1.456 3.05 3.05 0 0 1-.971 1.185c-4.131 3.582-9.827 5.754-13.958 9.336 4.104-.067 7.455.523 10.481.205a5.525 5.525 0 0 0 2.095-.623 7.07 7.07 0 0 0 1.534-1.284l3.383-3.416.139 5.118c1.209-.186 2.643.364 3.859.178 1.144-6.177.661-13.241.357-19.524-.33-7.369-.786-12.718-1.123-20.081-.139-3.151-.284-6.309-.152-9.467.106-2.437.37-4.867.661-7.283a278.29 278.29 0 0 1 2.696-17.479"/><path fill="#FFFEFF" d="m207.283 197.37-1.031.662a117.907 117.907 0 0 1-11.466 6.832 12.13 12.13 0 0 1-3.013 1.139 4.57 4.57 0 0 1-3.133-.404 5.39 5.39 0 0 1-1.804-1.893 22.487 22.487 0 0 1-2.194-5.502c-.925-3.079-1.678-6.21-2.643-9.269-1.17-3.688-2.934-7.25-3.238-11.11 1.81.298 3.647-.112 5.458-.417a45.868 45.868 0 0 1 6.007-.616h3.166c.291 0 2.128 0 2.253.219a.5.5 0 0 1 .06.245c.194 3.125.297 6.254.311 9.388-.039.929.043 1.86.244 2.768a.965.965 0 0 0 .522.734c.199.044.406.028.595-.046 1.903-.536 3.436-1.648 5.135-2.648a252.882 252.882 0 0 1 5.683-3.185 229.85 229.85 0 0 1 5.637-2.966c.965-.496 1.937-.98 2.908-1.463.37-.179 2.498-1.523 2.802-1.357l3.707 1.946s-1.05 4.761-1.11 5.217c-.185 1.391-.324 2.245-1.526 3.079-1.56 1.086-3.199 2.072-4.792 3.105l-8.538 5.542Z"/><path fill="#000" d="M230.929 182.989a7.92 7.92 0 0 1 2.24-.761 6.83 6.83 0 0 1 1.983.053c2.947.424 5.742 1.649 8.703 2.019.178-.437-.172-.893-.509-1.218-2.987-2.867-6.945-4.449-10.798-5.959a16.102 16.102 0 0 0 3.734-4.389c-.787-.477-1.791-.278-2.644 0-5.062 1.509-9.569 4.548-14.611 6.131l3.681 1.688c.1.038.189.102.257.185a.592.592 0 0 1 0 .484 18.487 18.487 0 0 0-.661 3.211 22.935 22.935 0 0 0-.119 1.642c0 .331-.158 1.284.093 1.542.35.371 2.128-1.026 2.558-1.284a95.141 95.141 0 0 1 2.861-1.662 34.667 34.667 0 0 1 3.232-1.682Z"/><path stroke="#000" stroke-linecap="round" stroke-linejoin="round" stroke-width="1.814" d="m221.525 187.743 1.15-6.336a.972.972 0 0 0-.053-.722.93.93 0 0 0-.516-.317 32.096 32.096 0 0 0-4.58-1.238"/><path stroke="#000" stroke-linecap="round" stroke-linejoin="round" stroke-width="1.814" d="M178.8 179.328a144.39 144.39 0 0 0 7.144 22.299c.601 1.463 1.289 2.999 2.584 3.906a5.86 5.86 0 0 0 5.095.516 17.985 17.985 0 0 0 4.626-2.575 461.256 461.256 0 0 1 31.992-20.286 5.463 5.463 0 0 1 5.208-.794l8.36 1.986c.502-.861-.357-1.867-1.163-2.457a29.782 29.782 0 0 0-9.887-4.694l3.86-3.701a1.766 1.766 0 0 0-1.699-1.211 4.96 4.96 0 0 0-2.148.563c-14.056 6.038-23.05 10.248-36.36 17.796-.106-5.224-.615-6.449-.714-12.579"/><path fill="#fff" stroke="#000" stroke-linecap="round" stroke-linejoin="round" stroke-width="1.814" d="M160.911 6.654a.446.446 0 0 0-.205-.331c-.172-.073-.35.08-.469.218a10.021 10.021 0 0 0-1.282 1.84c-.714-.211-1.091-.953-1.52-1.562a3.894 3.894 0 0 0-2.049-1.575c-1.097-.318-2.267 0-3.357.384a.842.842 0 0 0-.469.278.801.801 0 0 0 0 .735c.211.549.469 1.079.727 1.602l3.251 6.62c.33.662 1.778.06 2.346-.112a2.145 2.145 0 0 0 1.209-.755c.282-.464.504-.963.661-1.483.331-.874.661-1.754.925-2.648a6.46 6.46 0 0 0 .232-3.211Z"/><path fill="#2B2B2B" d="M181.959 184.85c6.245.086 12.523.172 18.689-.795 1.732-16.273 2.478-32.858 1.216-49.185a7.333 7.333 0 0 0 5.948-2.476 12.8 12.8 0 0 0 2.194-4.284 35.503 35.503 0 0 0 1.711-6.905c.23-2.086.333-4.184.311-6.283.066-6.528.126-13.135-1.375-19.491-.66-2.814-1.744-5.72-4.051-7.462a14.821 14.821 0 0 0-3.747-1.84l-13.217-5.019c-3.714-1.403-8.089-2.456-11.975-.82-5.518 2.316-9.615 8.5-13.534 12.79-2.954 3.225-5.948 6.515-7.811 10.468-3.932 8.309-2.3 18.028-1.183 27.145a211.215 211.215 0 0 1 1.573 27.641c-.04 4.634-.113 9.348-.582 13.976-.112 1.086-2.134 11.977-1.368 12.096 4.382.662 9.252.179 13.687.239l13.514.205Z"/><path stroke="#000" stroke-linecap="round" stroke-linejoin="round" stroke-width="1.814" d="m165.279 236.094 4.626 3.741c.078.077.177.13.284.152a.514.514 0 0 0 .37-.205c.787-.782 1.401-1.775 2.379-2.311.086-.046.185-.126.159-.218-.026-.093-.205 0-.106.053"/><path fill="#2B2B2B" fill-rule="evenodd" d="M179.754 83.5c-4.242-4.635-13.061-21.895-14.422-28.045-1.361-6.15-4.626-33.964-4.99-41.797-2.762.49-2.359.662-5.194 1.133-1.051 5.104-3.43 34.295-3.648 43.802-.079 3.423-.139 6.892.661 10.23a41.806 41.806 0 0 0 3.04 7.944 982.787 982.787 0 0 1 7.435 16.585l-.225-.874" clip-rule="evenodd"/><path stroke="#000" stroke-linecap="round" stroke-linejoin="round" stroke-width="1.814" d="M179.754 83.5c-4.242-4.635-13.061-21.895-14.422-28.045-1.361-6.15-4.626-33.964-4.99-41.797-2.762.49-2.359.662-5.194 1.133-1.051 5.104-3.43 34.295-3.648 43.802-.079 3.423-.139 6.892.661 10.23a41.806 41.806 0 0 0 3.04 7.944 982.787 982.787 0 0 1 7.435 16.585l-.225-.874m22.106-13.52a191.635 191.635 0 0 1 16.402 5.959c2.644 1.099 5.287 2.304 7.223 4.41 4.435 4.852 4.157 12.473 4.137 18.57 0 7.283-.528 14.612-2.723 21.577a8.758 8.758 0 0 1-1.506 3.119c-1.322 1.522-3.371 2.079-5.32 2.522-6.9 1.563-14.949-.94-21.861-2.463"/><path fill="#fff" d="M173.236 72.245c-.958 6.382-3.106 12.619-3.232 19.074a141.087 141.087 0 0 0 9.84-6.044.543.543 0 0 0 .238-.239c.08-.205-.079-.417-.079-.662 0-.39.443-.59.813-.708a22.126 22.126 0 0 0 4.124-2.033.776.776 0 0 0 .449-1.066l-3.304-14.492c-.04-.18-.106-.385-.278-.45a.574.574 0 0 0-.456.092 46.707 46.707 0 0 0-5.981 3.873 10.29 10.29 0 0 0-1.982 1.827 3.975 3.975 0 0 0-.892 2.483"/><path stroke="#000" stroke-linecap="round" stroke-linejoin="round" stroke-width="1.814" d="M181.873 66.306A49.94 49.94 0 0 0 184.9 79.86c.184.35.235.754.145 1.139-.136.275-.35.505-.614.662a225.117 225.117 0 0 1-14.301 9.818c1.084-7.057 2.095-10.229 2.643-17.353"/><path fill="#fff" d="m177.016 73.1-2.544.324a11.82 11.82 0 0 1-3.239.105 3.907 3.907 0 0 1-2.716-1.602 3.983 3.983 0 0 1-.542-2.065c.016-.342.051-.682.106-1.02.033-.397.053-.801.06-1.205a.787.787 0 0 0-.04-.305.756.756 0 0 0-.251-.27 9.493 9.493 0 0 1-1.322-1.034.385.385 0 0 1 0-.662c.664-.472 1.29-.997 1.87-1.569.448-.61.775-1.3.965-2.032a24.91 24.91 0 0 1 .813-2.516c.308-.69.668-1.353 1.077-1.986a10.446 10.446 0 0 1 3.84-3.602 6.597 6.597 0 0 1 3.238-.801c2.372.099 4.461 1.873 5.426 4.045a12.127 12.127 0 0 1 .542 7.011c-.423 2.344-1.23 4.595-1.838 6.892"/><path stroke="#000" stroke-linecap="round" stroke-linejoin="round" stroke-width="1.814" d="m177.016 73.1-2.544.324a11.82 11.82 0 0 1-3.239.105 3.907 3.907 0 0 1-2.716-1.602 3.983 3.983 0 0 1-.542-2.065c.016-.342.051-.682.106-1.02.033-.397.053-.801.06-1.205a.787.787 0 0 0-.04-.305.756.756 0 0 0-.251-.27 9.493 9.493 0 0 1-1.322-1.034.385.385 0 0 1 0-.662c.664-.472 1.29-.997 1.87-1.569.448-.61.775-1.3.965-2.032a24.91 24.91 0 0 1 .813-2.516c.308-.69.668-1.353 1.077-1.986a10.446 10.446 0 0 1 3.84-3.602 6.597 6.597 0 0 1 3.238-.801c2.372.099 4.461 1.873 5.426 4.045a12.127 12.127 0 0 1 .542 7.011c-.423 2.344-1.23 4.595-1.838 6.892"/><path fill="#000" d="M184.417 63.784c.073-.968.073-1.94 0-2.907a8.44 8.44 0 0 0-5.062-7.806 5.279 5.279 0 0 0-2.247-.503c-3.033.073-5.405 3.205-6.535 5.734 2.273 2.536 5.359 4.164 8.373 5.74a3.304 3.304 0 0 1 1.064-1.39c.3-.246.665-.398 1.05-.437a1.904 1.904 0 0 1 1.818 1.516 3.98 3.98 0 0 1-.39 2.503 8.696 8.696 0 0 1-1.474 2.27c.621.56 1.183 1.181 1.679 1.854a37.401 37.401 0 0 0 1.718-6.541l.006-.033Z"/><path fill="#000" d="M184.094 65.393a45.899 45.899 0 0 1 9.324 17.59l-6.423-2.052a4.193 4.193 0 0 1-1.434-.662 4.056 4.056 0 0 1-.972-1.49c-1.361-3.025-2.491-6.368-1.824-9.62"/><path fill="#D92228" d="M183.995 89.207a11.982 11.982 0 0 0-1.395-3.237 3.428 3.428 0 0 0-2.974-1.59c.06 0 3.172 11.64 3.509 12.706a166.291 166.291 0 0 0 2.122 6.237c.614 1.701 1.665 3.131 2.339 4.819.747 1.854.403 3.768.113 5.694-.41 2.682-.562 2.033-.972 4.714-.714-1.933-3.007-2.714-5.036-3.032-2.603-.404-5.346-.437-7.798.523-4.348 1.708-6.754 6.753-11.73 7.144-.562.046-1.322.145-1.394.701-.018.207.025.415.125.596a5.1 5.1 0 0 0 5.479 2.814c1.321-.258 2.445-1.033 3.667-1.569 2.287-1.013 4.838-1.198 7.27-1.821 1.441-.37 3.502-1.251 4.97-.662-.41 1.781-2.208 3.973-3.371 5.343a11.677 11.677 0 0 1-5.102 3.694.708.708 0 0 0-.37.219.572.572 0 0 0 .099.662 3.2 3.2 0 0 0 2.168 1 7.345 7.345 0 0 0 1.738.145 6.379 6.379 0 0 0 3.113-1.205c.931-.629 1.771-1.39 2.683-2.045 1.321-.96 2.861-1.536 4.275-2.364 1.203-.702 1.983-2.178 3.014-3.112 2.564-2.257 6.252-2.529 9.51-3.542a2.113 2.113 0 0 0 1.117-.629c.214-.342.337-.735.356-1.138.516-4.231.78-5.132 1.322-9.362a2.39 2.39 0 0 1 1.652-2.331c2.928-1.589 5.816-3.482 7.66-6.263 2.412-3.621 2.769-8.309 5.168-11.917a5.959 5.959 0 0 0 1.057-1.986 1.55 1.55 0 0 0-.919-1.834c-.694-.166-1.321.357-1.824.887-1.982 2.218-2.967 5.105-4.877 7.342a34.174 34.174 0 0 1-6.707 6.025 17.063 17.063 0 0 1-5.558 2.648 8.523 8.523 0 0 1-6.027-.609 10.29 10.29 0 0 1-3.205-2.986 21.17 21.17 0 0 1-2.895-5.356 17.748 17.748 0 0 0-1.097-2.118 25.41 25.41 0 0 1-1.275-3.205Z"/><path fill="#fff" d="M215.068 87.592a3.273 3.273 0 0 0-.615.913 3.925 3.925 0 0 0-.204 1.172c-.019.16-.008.322.033.477.155.287.432.487.753.543.27.094.554.143.839.145a2.119 2.119 0 0 0 1.368-.622c.359-.366.658-.786.886-1.245a5.104 5.104 0 0 0 .661-1.72 1.286 1.286 0 0 0-1.593-1.398c-.8.212-1.619 1.159-2.128 1.735Zm-35.098-3.35a1.985 1.985 0 0 0-.033 1.006 8.635 8.635 0 0 0 1.004 2.9c.219.495.622.885 1.124 1.086.432.076.876.028 1.282-.14a1.554 1.554 0 0 0 1.018-.661c.117-.35.098-.73-.053-1.066a7.145 7.145 0 0 0-1.249-2.39c-.569-.676-2.512-2.218-3.093-.735Z"/><path stroke="#000" stroke-linecap="round" stroke-linejoin="round" stroke-width="1.814" d="M199.485 103.144c1.176 0 1.731-.43 2.776-.973a23.26 23.26 0 0 0 6.205-4.688 45.473 45.473 0 0 0 3.608-4.793 10.406 10.406 0 0 1 1.725-2.026 2.25 2.25 0 0 0 .806-2.159 5.872 5.872 0 0 1-.343-1.443c0-.06 1.117.808 1.15.795.158-.04.33-.616.416-.762.17-.291.395-.547.661-.754a1.38 1.38 0 0 1 1.87.066c.136.177.222.387.251.609a2.877 2.877 0 0 1-.661 2.052c-.436.596-.978 1.1-1.401 1.708-1.255 1.801-1.361 4.211-2.042 6.25a23.56 23.56 0 0 1-3.053 6.171 11.373 11.373 0 0 1-3.45 2.946 146.27 146.27 0 0 1-5.174 3.118m.152-.02c-.284 5.694-.383 5.959-.767 11.633"/><path fill="#D92228" fill-rule="evenodd" d="M202.056 119.358c-3.417-2.926-7.693-3.31-8.42-3.41a7.425 7.425 0 0 0-1.678-.092 5.92 5.92 0 0 0-2.293.847c-2.73 1.562-4.904 3.933-6.834 6.422-2.643 3.41-4.553 8.157-9.139 9.269-.311.073-.701.232-.661.55 0 .211.225.344.403.436a8.456 8.456 0 0 0 4.401.934 5.266 5.266 0 0 0 1.857-.404c1.428-.662 2.333-1.986 3.655-2.774 1.209-.708 2.676-1.125 3.826-1.907.6-.542 1.136-1.151 1.6-1.814l1.645-1.887c.373-.47.82-.877 1.322-1.205a5.031 5.031 0 0 1 1.07-.43 29.898 29.898 0 0 1 3.787-.933c3.099-.59 2.809-.749 5.657-2.106" clip-rule="evenodd"/><path stroke="#000" stroke-linecap="round" stroke-linejoin="round" stroke-width="1.814" d="M202.056 119.358c-3.417-2.926-7.693-3.31-8.42-3.41a7.425 7.425 0 0 0-1.678-.092 5.92 5.92 0 0 0-2.293.847c-2.73 1.562-4.904 3.933-6.834 6.422-2.643 3.41-4.553 8.157-9.139 9.269-.311.073-.701.232-.661.55 0 .211.225.344.403.436a8.456 8.456 0 0 0 4.401.934 5.266 5.266 0 0 0 1.857-.404c1.428-.662 2.333-1.986 3.655-2.774 1.209-.708 2.676-1.125 3.826-1.907.6-.542 1.136-1.151 1.6-1.814l1.645-1.887c.373-.47.82-.877 1.322-1.205a5.031 5.031 0 0 1 1.07-.43 29.898 29.898 0 0 1 3.787-.933c3.099-.59 2.809-.749 5.657-2.106m-16.151-4.078c-2.644-1.847-6.074-1.88-9.252-1.669a6.023 6.023 0 0 0-4.514 1.861c-2.267 1.92-4.474 4.436-7.164 5.76a5.623 5.623 0 0 1-3.74.543c-.529-.133-1.282-.252-1.447.271-.119.364.198.709.489.954l1.546 1.324a7.936 7.936 0 0 0 1.758 1.251c1.566.728 3.423.364 5.016-.311 1.07-.457 2.075-1.046 3.132-1.536a6.48 6.48 0 0 1 2.353-.464c2.399-.251 4.87-1.092 7.223-1.622"/><path fill="#fff" d="M194.383 102.806a6.078 6.078 0 0 0 5.15-.29 6.099 6.099 0 0 0 3.078-4.146 4.549 4.549 0 0 0-.45-3.25 5.625 5.625 0 0 0-2.174-1.914 5.115 5.115 0 0 0-2.643-.775 5.179 5.179 0 0 0-3.027 1.444 6.817 6.817 0 0 0-2.227 3.131 7.434 7.434 0 0 0 .264 4.185c.132.542.385 1.047.741 1.476"/><path stroke="#000" stroke-linecap="round" stroke-linejoin="round" stroke-width="1.814" d="M202.829 98.51a5.31 5.31 0 0 0 .278-3.523 5.033 5.033 0 0 0-1.203-1.926c-2.168-2.258-5.723-2.84-8.684-1.835a3.311 3.311 0 0 0 1.48 2.722 9.781 9.781 0 0 0 2.954 1.264c.451.126.827.44 1.031.86.185.44.288.909.304 1.385a2.442 2.442 0 0 1 1.322-.047c.435.107.806.39 1.024.782.168.364.232.767.185 1.165 0 .596-.125 1.503-.66 1.86a3.162 3.162 0 0 1-.734.272c-.211.066-.496.092-.661.278a.51.51 0 0 0-.099.337c.003.122.023.242.06.358a.257.257 0 0 0 .039.099.22.22 0 0 0 .225.08c.302-.086.578-.248.8-.47.27-.218.521-.457.753-.715a9.007 9.007 0 0 0 1.54-2.775c0-.033.026-.112.046-.172Z" clip-rule="evenodd"/><path stroke="#000" stroke-linecap="round" stroke-linejoin="round" stroke-width="1.814" d="M199.003 102.972c-1.712.847-5.598.662-7.21-2.02a5.562 5.562 0 0 1 1.321-7.17"/><path fill="#000" d="M203.021 95.477a4.275 4.275 0 0 0-.978-2.45 6.75 6.75 0 0 0-3.668-1.86 12.713 12.713 0 0 0-3.417-.41 2.884 2.884 0 0 0-1.13.238c-.228.107-.412.29-.522.516-.105.43.011.886.311 1.212a9.682 9.682 0 0 0 2.584 2.218c.571.4 1.169.761 1.79 1.079.392.121.73.374.959.715.119.245.125.57.35.722a.77.77 0 0 0 .456.092 1.56 1.56 0 0 1 1.256.444c.191.245.271.622.568.708.456.146.965-.582 1.11-.947a5.058 5.058 0 0 0 .331-2.277Z"/><path stroke="#000" stroke-linecap="round" stroke-linejoin="round" stroke-width="1.814" d="M186.103 119.609a70.048 70.048 0 0 0 2.141-9.268c.058-.272.08-.55.066-.828a3.364 3.364 0 0 0-.463-1.271 58.44 58.44 0 0 1-6.132-17.783 6.66 6.66 0 0 0-.456-1.828c-.168-.51-.367-1.01-.595-1.496a6.26 6.26 0 0 1-.76-1.788c-.146-.576-.139-1.324.377-1.615.515-.291 1.249.165 1.638.662.661.88 1.197 1.271 1.243 2.364-.04-.45 1.982-.974 1.93-.894-.126.185-.661.907-.82 1.072-.767.914 1.044 3.973 1.831 5.582 1.936 3.912 2.755 7.461 6.397 9.56"/><path stroke="#000" stroke-linecap="round" stroke-linejoin="round" stroke-width="1.814" d="M171.161 84.692c-7.58 6.482-16.251 18.571-17.183 25.245-.799 5.581.106 11.255.793 16.829a222.238 222.238 0 0 1-.449 57.706c15.524.457 31.06-.662 46.538-1.787-1.19-8.918 1.784-39.334 1.381-43.73"/><path fill="#fff" d="m159.827 12.752.991-2.57c.417-1.072.84-2.224.602-3.35-.06-.284-.238-.615-.529-.602a.661.661 0 0 0-.443.305c-.588.721-.978 1.569-1.533 2.29a3.717 3.717 0 0 1-.661-.807l-.7-.907a5.43 5.43 0 0 0-.846-.934 3.91 3.91 0 0 0-1.322-.662 5.35 5.35 0 0 0-3.139-.106c-.39.113-.82.358-.853.768.018.267.123.52.298.722a46.886 46.886 0 0 1 3.747 7.004"/><path stroke="#000" stroke-linecap="round" stroke-linejoin="round" stroke-width="1.814" d="m159.827 12.752.991-2.57c.417-1.072.84-2.224.602-3.35-.06-.284-.238-.615-.529-.602a.661.661 0 0 0-.443.305c-.588.721-.978 1.569-1.533 2.29a3.717 3.717 0 0 1-.661-.807l-.7-.907a5.43 5.43 0 0 0-.846-.934 3.91 3.91 0 0 0-1.322-.662 5.35 5.35 0 0 0-3.139-.106c-.39.113-.82.358-.853.768.018.267.123.52.298.722a46.886 46.886 0 0 1 3.747 7.004"/><path stroke="#000" stroke-linecap="round" stroke-linejoin="round" stroke-width="1.575" d="M61.597 259.849c27.036.662 31.166.271 58.01-.662 17.136-.569 57.263-.708 74.406-.437 15.768.245 31.563 1.735 47.271.331"/><path stroke="#000" stroke-linecap="round" stroke-linejoin="round" stroke-width="1.836" d="M1.254 99.171c13.587.245 10.052 0 23.243-.284 13.706-.318 41.19.04 54.897-.285"/></svg>